<?xml version="1.0" encoding="utf-8" standalone="no"?>
<!DOCTYPE svg PUBLIC "-//W3C//DTD SVG 1.1//EN"
  "http://www.w3.org/Graphics/SVG/1.1/DTD/svg11.dtd">
<!-- Created with matplotlib (https://matplotlib.org/) -->
<svg height="288pt" version="1.1" viewBox="0 0 432 288" width="432pt" xmlns="http://www.w3.org/2000/svg" xmlns:xlink="http://www.w3.org/1999/xlink">
 <defs>
  <style type="text/css">
*{stroke-linecap:butt;stroke-linejoin:round;}
  </style>
 </defs>
 <g id="figure_1">
  <g id="patch_1">
   <path d="M 0 288 
L 432 288 
L 432 0 
L 0 0 
z
" style="fill:#ffffff;"/>
  </g>
  <g id="axes_1">
   <g id="patch_2">
    <path d="M 54 252 
L 388.8 252 
L 388.8 34.56 
L 54 34.56 
z
" style="fill:#ffffff;"/>
   </g>
   <g id="PathCollection_1"/>
   <g id="PathCollection_2"/>
   <g id="PathCollection_3"/>
   <g id="matplotlib.axis_1">
    <g id="xtick_1">
     <g id="line2d_1">
      <path clip-path="url(#p7fdddcf762)" d="M 83.192637 252 
L 83.192637 34.56 
" style="fill:none;stroke:#b0b0b0;stroke-linecap:square;stroke-width:0.8;"/>
     </g>
     <g id="line2d_2">
      <defs>
       <path d="M 0 0 
L 0 3.5 
" id="m70e7f94d63" style="stroke:#000000;stroke-width:0.8;"/>
      </defs>
      <g>
       <use style="stroke:#000000;stroke-width:0.8;" x="83.192637" xlink:href="#m70e7f94d63" y="252"/>
      </g>
     </g>
     <g id="text_1">
      <!-- −1.0 -->
      <defs>
       <path d="M 10.59375 35.5 
L 73.1875 35.5 
L 73.1875 27.203125 
L 10.59375 27.203125 
z
" id="DejaVuSans-8722"/>
       <path d="M 12.40625 8.296875 
L 28.515625 8.296875 
L 28.515625 63.921875 
L 10.984375 60.40625 
L 10.984375 69.390625 
L 28.421875 72.90625 
L 38.28125 72.90625 
L 38.28125 8.296875 
L 54.390625 8.296875 
L 54.390625 0 
L 12.40625 0 
z
" id="DejaVuSans-49"/>
       <path d="M 10.6875 12.40625 
L 21 12.40625 
L 21 0 
L 10.6875 0 
z
" id="DejaVuSans-46"/>
       <path d="M 31.78125 66.40625 
Q 24.171875 66.40625 20.328125 58.90625 
Q 16.5 51.421875 16.5 36.375 
Q 16.5 21.390625 20.328125 13.890625 
Q 24.171875 6.390625 31.78125 6.390625 
Q 39.453125 6.390625 43.28125 13.890625 
Q 47.125 21.390625 47.125 36.375 
Q 47.125 51.421875 43.28125 58.90625 
Q 39.453125 66.40625 31.78125 66.40625 
z
M 31.78125 74.21875 
Q 44.046875 74.21875 50.515625 64.515625 
Q 56.984375 54.828125 56.984375 36.375 
Q 56.984375 17.96875 50.515625 8.265625 
Q 44.046875 -1.421875 31.78125 -1.421875 
Q 19.53125 -1.421875 13.0625 8.265625 
Q 6.59375 17.96875 6.59375 36.375 
Q 6.59375 54.828125 13.0625 64.515625 
Q 19.53125 74.21875 31.78125 74.21875 
z
" id="DejaVuSans-48"/>
      </defs>
      <g transform="translate(71.051231 266.598437)scale(0.1 -0.1)">
       <use xlink:href="#DejaVuSans-8722"/>
       <use x="83.789062" xlink:href="#DejaVuSans-49"/>
       <use x="147.412109" xlink:href="#DejaVuSans-46"/>
       <use x="179.199219" xlink:href="#DejaVuSans-48"/>
      </g>
     </g>
    </g>
    <g id="xtick_2">
     <g id="line2d_3">
      <path clip-path="url(#p7fdddcf762)" d="M 153.064914 252 
L 153.064914 34.56 
" style="fill:none;stroke:#b0b0b0;stroke-linecap:square;stroke-width:0.8;"/>
     </g>
     <g id="line2d_4">
      <g>
       <use style="stroke:#000000;stroke-width:0.8;" x="153.064914" xlink:href="#m70e7f94d63" y="252"/>
      </g>
     </g>
     <g id="text_2">
      <!-- −0.5 -->
      <defs>
       <path d="M 10.796875 72.90625 
L 49.515625 72.90625 
L 49.515625 64.59375 
L 19.828125 64.59375 
L 19.828125 46.734375 
Q 21.96875 47.46875 24.109375 47.828125 
Q 26.265625 48.1875 28.421875 48.1875 
Q 40.625 48.1875 47.75 41.5 
Q 54.890625 34.8125 54.890625 23.390625 
Q 54.890625 11.625 47.5625 5.09375 
Q 40.234375 -1.421875 26.90625 -1.421875 
Q 22.3125 -1.421875 17.546875 -0.640625 
Q 12.796875 0.140625 7.71875 1.703125 
L 7.71875 11.625 
Q 12.109375 9.234375 16.796875 8.0625 
Q 21.484375 6.890625 26.703125 6.890625 
Q 35.15625 6.890625 40.078125 11.328125 
Q 45.015625 15.765625 45.015625 23.390625 
Q 45.015625 31 40.078125 35.4375 
Q 35.15625 39.890625 26.703125 39.890625 
Q 22.75 39.890625 18.8125 39.015625 
Q 14.890625 38.140625 10.796875 36.28125 
z
" id="DejaVuSans-53"/>
      </defs>
      <g transform="translate(140.923507 266.598437)scale(0.1 -0.1)">
       <use xlink:href="#DejaVuSans-8722"/>
       <use x="83.789062" xlink:href="#DejaVuSans-48"/>
       <use x="147.412109" xlink:href="#DejaVuSans-46"/>
       <use x="179.199219" xlink:href="#DejaVuSans-53"/>
      </g>
     </g>
    </g>
    <g id="xtick_3">
     <g id="line2d_5">
      <path clip-path="url(#p7fdddcf762)" d="M 222.93719 252 
L 222.93719 34.56 
" style="fill:none;stroke:#b0b0b0;stroke-linecap:square;stroke-width:0.8;"/>
     </g>
     <g id="line2d_6">
      <g>
       <use style="stroke:#000000;stroke-width:0.8;" x="222.93719" xlink:href="#m70e7f94d63" y="252"/>
      </g>
     </g>
     <g id="text_3">
      <!-- 0.0 -->
      <g transform="translate(214.985628 266.598437)scale(0.1 -0.1)">
       <use xlink:href="#DejaVuSans-48"/>
       <use x="63.623047" xlink:href="#DejaVuSans-46"/>
       <use x="95.410156" xlink:href="#DejaVuSans-48"/>
      </g>
     </g>
    </g>
    <g id="xtick_4">
     <g id="line2d_7">
      <path clip-path="url(#p7fdddcf762)" d="M 292.809467 252 
L 292.809467 34.56 
" style="fill:none;stroke:#b0b0b0;stroke-linecap:square;stroke-width:0.8;"/>
     </g>
     <g id="line2d_8">
      <g>
       <use style="stroke:#000000;stroke-width:0.8;" x="292.809467" xlink:href="#m70e7f94d63" y="252"/>
      </g>
     </g>
     <g id="text_4">
      <!-- 0.5 -->
      <g transform="translate(284.857904 266.598437)scale(0.1 -0.1)">
       <use xlink:href="#DejaVuSans-48"/>
       <use x="63.623047" xlink:href="#DejaVuSans-46"/>
       <use x="95.410156" xlink:href="#DejaVuSans-53"/>
      </g>
     </g>
    </g>
    <g id="xtick_5">
     <g id="line2d_9">
      <path clip-path="url(#p7fdddcf762)" d="M 362.681743 252 
L 362.681743 34.56 
" style="fill:none;stroke:#b0b0b0;stroke-linecap:square;stroke-width:0.8;"/>
     </g>
     <g id="line2d_10">
      <g>
       <use style="stroke:#000000;stroke-width:0.8;" x="362.681743" xlink:href="#m70e7f94d63" y="252"/>
      </g>
     </g>
     <g id="text_5">
      <!-- 1.0 -->
      <g transform="translate(354.730181 266.598437)scale(0.1 -0.1)">
       <use xlink:href="#DejaVuSans-49"/>
       <use x="63.623047" xlink:href="#DejaVuSans-46"/>
       <use x="95.410156" xlink:href="#DejaVuSans-48"/>
      </g>
     </g>
    </g>
   </g>
   <g id="matplotlib.axis_2">
    <g id="ytick_1">
     <g id="line2d_11">
      <path clip-path="url(#p7fdddcf762)" d="M 54 216.792603 
L 388.8 216.792603 
" style="fill:none;stroke:#b0b0b0;stroke-linecap:square;stroke-width:0.8;"/>
     </g>
     <g id="line2d_12">
      <defs>
       <path d="M 0 0 
L -3.5 0 
" id="m1ead2c6aec" style="stroke:#000000;stroke-width:0.8;"/>
      </defs>
      <g>
       <use style="stroke:#000000;stroke-width:0.8;" x="54" xlink:href="#m1ead2c6aec" y="216.792603"/>
      </g>
     </g>
     <g id="text_6">
      <!-- 0.0 -->
      <g transform="translate(31.096875 220.591822)scale(0.1 -0.1)">
       <use xlink:href="#DejaVuSans-48"/>
       <use x="63.623047" xlink:href="#DejaVuSans-46"/>
       <use x="95.410156" xlink:href="#DejaVuSans-48"/>
      </g>
     </g>
    </g>
    <g id="ytick_2">
     <g id="line2d_13">
      <path clip-path="url(#p7fdddcf762)" d="M 54 178.539188 
L 388.8 178.539188 
" style="fill:none;stroke:#b0b0b0;stroke-linecap:square;stroke-width:0.8;"/>
     </g>
     <g id="line2d_14">
      <g>
       <use style="stroke:#000000;stroke-width:0.8;" x="54" xlink:href="#m1ead2c6aec" y="178.539188"/>
      </g>
     </g>
     <g id="text_7">
      <!-- 0.5 -->
      <g transform="translate(31.096875 182.338407)scale(0.1 -0.1)">
       <use xlink:href="#DejaVuSans-48"/>
       <use x="63.623047" xlink:href="#DejaVuSans-46"/>
       <use x="95.410156" xlink:href="#DejaVuSans-53"/>
      </g>
     </g>
    </g>
    <g id="ytick_3">
     <g id="line2d_15">
      <path clip-path="url(#p7fdddcf762)" d="M 54 140.285773 
L 388.8 140.285773 
" style="fill:none;stroke:#b0b0b0;stroke-linecap:square;stroke-width:0.8;"/>
     </g>
     <g id="line2d_16">
      <g>
       <use style="stroke:#000000;stroke-width:0.8;" x="54" xlink:href="#m1ead2c6aec" y="140.285773"/>
      </g>
     </g>
     <g id="text_8">
      <!-- 1.0 -->
      <g transform="translate(31.096875 144.084992)scale(0.1 -0.1)">
       <use xlink:href="#DejaVuSans-49"/>
       <use x="63.623047" xlink:href="#DejaVuSans-46"/>
       <use x="95.410156" xlink:href="#DejaVuSans-48"/>
      </g>
     </g>
    </g>
    <g id="ytick_4">
     <g id="line2d_17">
      <path clip-path="url(#p7fdddcf762)" d="M 54 102.032358 
L 388.8 102.032358 
" style="fill:none;stroke:#b0b0b0;stroke-linecap:square;stroke-width:0.8;"/>
     </g>
     <g id="line2d_18">
      <g>
       <use style="stroke:#000000;stroke-width:0.8;" x="54" xlink:href="#m1ead2c6aec" y="102.032358"/>
      </g>
     </g>
     <g id="text_9">
      <!-- 1.5 -->
      <g transform="translate(31.096875 105.831577)scale(0.1 -0.1)">
       <use xlink:href="#DejaVuSans-49"/>
       <use x="63.623047" xlink:href="#DejaVuSans-46"/>
       <use x="95.410156" xlink:href="#DejaVuSans-53"/>
      </g>
     </g>
    </g>
    <g id="ytick_5">
     <g id="line2d_19">
      <path clip-path="url(#p7fdddcf762)" d="M 54 63.778944 
L 388.8 63.778944 
" style="fill:none;stroke:#b0b0b0;stroke-linecap:square;stroke-width:0.8;"/>
     </g>
     <g id="line2d_20">
      <g>
       <use style="stroke:#000000;stroke-width:0.8;" x="54" xlink:href="#m1ead2c6aec" y="63.778944"/>
      </g>
     </g>
     <g id="text_10">
      <!-- 2.0 -->
      <defs>
       <path d="M 19.1875 8.296875 
L 53.609375 8.296875 
L 53.609375 0 
L 7.328125 0 
L 7.328125 8.296875 
Q 12.9375 14.109375 22.625 23.890625 
Q 32.328125 33.6875 34.8125 36.53125 
Q 39.546875 41.84375 41.421875 45.53125 
Q 43.3125 49.21875 43.3125 52.78125 
Q 43.3125 58.59375 39.234375 62.25 
Q 35.15625 65.921875 28.609375 65.921875 
Q 23.96875 65.921875 18.8125 64.3125 
Q 13.671875 62.703125 7.8125 59.421875 
L 7.8125 69.390625 
Q 13.765625 71.78125 18.9375 73 
Q 24.125 74.21875 28.421875 74.21875 
Q 39.75 74.21875 46.484375 68.546875 
Q 53.21875 62.890625 53.21875 53.421875 
Q 53.21875 48.921875 51.53125 44.890625 
Q 49.859375 40.875 45.40625 35.40625 
Q 44.1875 33.984375 37.640625 27.21875 
Q 31.109375 20.453125 19.1875 8.296875 
z
" id="DejaVuSans-50"/>
      </defs>
      <g transform="translate(31.096875 67.578162)scale(0.1 -0.1)">
       <use xlink:href="#DejaVuSans-50"/>
       <use x="63.623047" xlink:href="#DejaVuSans-46"/>
       <use x="95.410156" xlink:href="#DejaVuSans-48"/>
      </g>
     </g>
    </g>
   </g>
   <g id="line2d_21">
    <path clip-path="url(#p7fdddcf762)" d="M 69.218182 224.443286 
L 72.292562 222.760136 
L 75.366942 221.076985 
L 78.441322 219.393835 
L 81.515702 217.710685 
L 84.590083 216.027535 
L 87.664463 214.344384 
L 90.738843 212.661234 
L 93.813223 210.978084 
L 96.887603 209.294934 
L 99.961983 207.611783 
L 103.036364 205.928633 
L 106.110744 204.245483 
L 109.185124 202.562333 
L 112.259504 200.879182 
L 115.333884 199.196032 
L 118.408264 197.512882 
L 121.482645 195.829732 
L 124.557025 194.146581 
L 127.631405 192.463431 
L 130.705785 190.780281 
L 133.780165 189.097131 
L 136.854545 187.41398 
L 139.928926 185.73083 
L 143.003306 184.04768 
L 146.077686 182.36453 
L 149.152066 180.681379 
L 152.226446 178.998229 
L 155.300826 177.315079 
L 158.375207 175.631929 
L 161.449587 173.948778 
L 164.523967 172.265628 
L 167.598347 170.582478 
L 170.672727 168.899328 
L 173.747107 167.216177 
L 176.821488 165.533027 
L 179.895868 163.849877 
L 182.970248 162.166727 
L 186.044628 160.483576 
L 189.119008 158.800426 
L 192.193388 157.117276 
L 195.267769 155.434126 
L 198.342149 153.750975 
L 201.416529 152.067825 
L 204.490909 150.384675 
L 207.565289 148.701525 
L 210.639669 147.018374 
L 213.71405 145.335224 
L 216.78843 143.652074 
L 219.86281 141.968924 
L 222.93719 140.285773 
L 226.01157 138.602623 
L 229.08595 136.919473 
L 232.160331 135.236323 
L 235.234711 133.553172 
L 238.309091 131.870022 
L 241.383471 130.186872 
L 244.457851 128.503722 
L 247.532231 126.820571 
L 250.606612 125.137421 
L 253.680992 123.454271 
L 256.755372 121.771121 
L 259.829752 120.08797 
L 262.904132 118.40482 
L 265.978512 116.72167 
L 269.052893 115.03852 
L 272.127273 113.355369 
L 275.201653 111.672219 
L 278.276033 109.989069 
L 281.350413 108.305919 
L 284.424793 106.622768 
L 287.499174 104.939618 
L 290.573554 103.256468 
L 293.647934 101.573318 
L 296.722314 99.890167 
L 299.796694 98.207017 
L 302.871074 96.523867 
L 305.945455 94.840716 
L 309.019835 93.157566 
L 312.094215 91.474416 
L 315.168595 89.791266 
L 318.242975 88.108115 
L 321.317355 86.424965 
L 324.391736 84.741815 
L 327.466116 83.058665 
L 330.540496 81.375514 
L 333.614876 79.692364 
L 336.689256 78.009214 
L 339.763636 76.326064 
L 342.838017 74.642913 
L 345.912397 72.959763 
L 348.986777 71.276613 
L 352.061157 69.593463 
L 355.135537 67.910312 
L 358.209917 66.227162 
L 361.284298 64.544012 
L 364.358678 62.860862 
L 367.433058 61.177711 
L 370.507438 59.494561 
L 373.581818 57.811411 
" style="fill:none;stroke:#1f77b4;stroke-linecap:square;stroke-width:1.5;"/>
   </g>
   <g id="line2d_22">
    <path clip-path="url(#p7fdddcf762)" d="M 69.218182 47.712509 
L 72.292562 51.378411 
L 75.366942 54.970253 
L 78.441322 58.488037 
L 81.515702 61.931763 
L 84.590083 65.30143 
L 87.664463 68.597038 
L 90.738843 71.818587 
L 93.813223 74.966078 
L 96.887603 78.039511 
L 99.961983 81.038884 
L 103.036364 83.9642 
L 106.110744 86.815456 
L 109.185124 89.592654 
L 112.259504 92.295793 
L 115.333884 94.924874 
L 118.408264 97.479896 
L 121.482645 99.96086 
L 124.557025 102.367764 
L 127.631405 104.700611 
L 130.705785 106.959398 
L 133.780165 109.144127 
L 136.854545 111.254798 
L 139.928926 113.29141 
L 143.003306 115.253963 
L 146.077686 117.142457 
L 149.152066 118.956893 
L 152.226446 120.697271 
L 155.300826 122.363589 
L 158.375207 123.95585 
L 161.449587 125.474051 
L 164.523967 126.918194 
L 167.598347 128.288278 
L 170.672727 129.584304 
L 173.747107 130.806271 
L 176.821488 131.95418 
L 179.895868 133.028029 
L 182.970248 134.027821 
L 186.044628 134.953553 
L 189.119008 135.805227 
L 192.193388 136.582843 
L 195.267769 137.2864 
L 198.342149 137.915898 
L 201.416529 138.471337 
L 204.490909 138.952718 
L 207.565289 139.360041 
L 210.639669 139.693304 
L 213.71405 139.95251 
L 216.78843 140.137656 
L 219.86281 140.248744 
L 222.93719 140.285773 
L 226.01157 140.248744 
L 229.08595 140.137656 
L 232.160331 139.95251 
L 235.234711 139.693304 
L 238.309091 139.360041 
L 241.383471 138.952718 
L 244.457851 138.471337 
L 247.532231 137.915898 
L 250.606612 137.2864 
L 253.680992 136.582843 
L 256.755372 135.805227 
L 259.829752 134.953553 
L 262.904132 134.027821 
L 265.978512 133.028029 
L 269.052893 131.95418 
L 272.127273 130.806271 
L 275.201653 129.584304 
L 278.276033 128.288278 
L 281.350413 126.918194 
L 284.424793 125.474051 
L 287.499174 123.95585 
L 290.573554 122.363589 
L 293.647934 120.697271 
L 296.722314 118.956893 
L 299.796694 117.142457 
L 302.871074 115.253963 
L 305.945455 113.29141 
L 309.019835 111.254798 
L 312.094215 109.144127 
L 315.168595 106.959398 
L 318.242975 104.700611 
L 321.317355 102.367764 
L 324.391736 99.96086 
L 327.466116 97.479896 
L 330.540496 94.924874 
L 333.614876 92.295793 
L 336.689256 89.592654 
L 339.763636 86.815456 
L 342.838017 83.9642 
L 345.912397 81.038884 
L 348.986777 78.039511 
L 352.061157 74.966078 
L 355.135537 71.818587 
L 358.209917 68.597038 
L 361.284298 65.30143 
L 364.358678 61.931763 
L 367.433058 58.488037 
L 370.507438 54.970253 
L 373.581818 51.378411 
" style="fill:none;stroke:#ff7f0e;stroke-linecap:square;stroke-width:1.5;"/>
   </g>
   <g id="line2d_23">
    <path clip-path="url(#p7fdddcf762)" d="M 69.218182 242.116364 
L 72.292562 236.12791 
L 75.366942 230.378962 
L 78.441322 224.864632 
L 81.515702 219.580032 
L 84.590083 214.520274 
L 87.664463 209.680469 
L 90.738843 205.055731 
L 93.813223 200.641172 
L 96.887603 196.431902 
L 99.961983 192.423036 
L 103.036364 188.609684 
L 106.110744 184.986959 
L 109.185124 181.549972 
L 112.259504 178.293837 
L 115.333884 175.213666 
L 118.408264 172.304569 
L 121.482645 169.561661 
L 124.557025 166.980052 
L 127.631405 164.554854 
L 130.705785 162.281181 
L 133.780165 160.154143 
L 136.854545 158.168854 
L 139.928926 156.320425 
L 143.003306 154.603969 
L 146.077686 153.014597 
L 149.152066 151.547422 
L 152.226446 150.197556 
L 155.300826 148.96011 
L 158.375207 147.830198 
L 161.449587 146.802931 
L 164.523967 145.873421 
L 167.598347 145.036781 
L 170.672727 144.288123 
L 173.747107 143.622558 
L 176.821488 143.035199 
L 179.895868 142.521158 
L 182.970248 142.075548 
L 186.044628 141.693479 
L 189.119008 141.370065 
L 192.193388 141.100418 
L 195.267769 140.879649 
L 198.342149 140.702871 
L 201.416529 140.565196 
L 204.490909 140.461737 
L 207.565289 140.387604 
L 210.639669 140.337911 
L 213.71405 140.307769 
L 216.78843 140.29229 
L 219.86281 140.286588 
L 222.93719 140.285773 
L 226.01157 140.284959 
L 229.08595 140.279256 
L 232.160331 140.263778 
L 235.234711 140.233636 
L 238.309091 140.183943 
L 241.383471 140.10981 
L 244.457851 140.00635 
L 247.532231 139.868675 
L 250.606612 139.691897 
L 253.680992 139.471129 
L 256.755372 139.201481 
L 259.829752 138.878067 
L 262.904132 138.495999 
L 265.978512 138.050388 
L 269.052893 137.536347 
L 272.127273 136.948989 
L 275.201653 136.283424 
L 278.276033 135.534765 
L 281.350413 134.698125 
L 284.424793 133.768616 
L 287.499174 132.741349 
L 290.573554 131.611436 
L 293.647934 130.373991 
L 296.722314 129.024125 
L 299.796694 127.55695 
L 302.871074 125.967578 
L 305.945455 124.251121 
L 309.019835 122.402692 
L 312.094215 120.417403 
L 315.168595 118.290366 
L 318.242975 116.016692 
L 321.317355 113.591495 
L 324.391736 111.009886 
L 327.466116 108.266977 
L 330.540496 105.357881 
L 333.614876 102.277709 
L 336.689256 99.021574 
L 339.763636 95.584588 
L 342.838017 91.961863 
L 345.912397 88.148511 
L 348.986777 84.139644 
L 352.061157 79.930375 
L 355.135537 75.515815 
L 358.209917 70.891077 
L 361.284298 66.051273 
L 364.358678 60.991515 
L 367.433058 55.706914 
L 370.507438 50.192584 
L 373.581818 44.443636 
" style="fill:none;stroke:#2ca02c;stroke-linecap:square;stroke-width:1.5;"/>
   </g>
   <g id="patch_3">
    <path d="M 54 252 
L 54 34.56 
" style="fill:none;stroke:#000000;stroke-linecap:square;stroke-linejoin:miter;stroke-width:0.8;"/>
   </g>
   <g id="patch_4">
    <path d="M 388.8 252 
L 388.8 34.56 
" style="fill:none;stroke:#000000;stroke-linecap:square;stroke-linejoin:miter;stroke-width:0.8;"/>
   </g>
   <g id="patch_5">
    <path d="M 54 252 
L 388.8 252 
" style="fill:none;stroke:#000000;stroke-linecap:square;stroke-linejoin:miter;stroke-width:0.8;"/>
   </g>
   <g id="patch_6">
    <path d="M 54 34.56 
L 388.8 34.56 
" style="fill:none;stroke:#000000;stroke-linecap:square;stroke-linejoin:miter;stroke-width:0.8;"/>
   </g>
  </g>
 </g>
 <defs>
  <clipPath id="p7fdddcf762">
   <rect height="217.44" width="334.8" x="54" y="34.56"/>
  </clipPath>
 </defs>
</svg>
