<svg xmlns="http://www.w3.org/2000/svg" viewBox="0 0 720 280" width="720" height="280" font-family="-apple-system, BlinkMacSystemFont, 'PingFang SC', 'Hiragino Sans GB', 'Microsoft YaHei', sans-serif">
  <rect width="720" height="280" fill="#ffffff"/>
  <line x1="56" y1="200" x2="690" y2="200" stroke="#cbd5e1" stroke-width="1.5"/>
  <text x="690" y="222" font-size="13" fill="#64748b" text-anchor="end">x</text>
  <text x="44" y="40" font-size="13" fill="#64748b" text-anchor="end">密度</text>
  <text x="56" y="18" font-size="14" font-weight="600" fill="#0f172a">真实分布 p：双峰</text>
  <path d="M56.0,199.9 L57.3,199.9 L58.5,199.9 L59.8,199.9 L61.1,199.9 L62.4,199.8 L63.6,199.8 L64.9,199.8 L66.2,199.8 L67.4,199.8 L68.7,199.7 L70.0,199.7 L71.2,199.7 L72.5,199.7 L73.8,199.6 L75.1,199.6 L76.3,199.5 L77.6,199.5 L78.9,199.4 L80.1,199.4 L81.4,199.3 L82.7,199.3 L84.0,199.2 L85.2,199.1 L86.5,199.0 L87.8,198.9 L89.0,198.8 L90.3,198.7 L91.6,198.6 L92.8,198.5 L94.1,198.4 L95.4,198.2 L96.7,198.1 L97.9,197.9 L99.2,197.7 L100.5,197.5 L101.7,197.3 L103.0,197.1 L104.3,196.8 L105.6,196.6 L106.8,196.3 L108.1,196.0 L109.4,195.7 L110.6,195.4 L111.9,195.0 L113.2,194.6 L114.4,194.2 L115.7,193.8 L117.0,193.3 L118.3,192.8 L119.5,192.3 L120.8,191.8 L122.1,191.2 L123.3,190.5 L124.6,189.9 L125.9,189.2 L127.2,188.5 L128.4,187.7 L129.7,186.9 L131.0,186.1 L132.2,185.2 L133.5,184.2 L134.8,183.2 L136.0,182.2 L137.3,181.1 L138.6,180.0 L139.9,178.8 L141.1,177.6 L142.4,176.3 L143.7,174.9 L144.9,173.5 L146.2,172.1 L147.5,170.5 L148.7,169.0 L150.0,167.3 L151.3,165.7 L152.6,163.9 L153.8,162.1 L155.1,160.2 L156.4,158.3 L157.6,156.3 L158.9,154.2 L160.2,152.1 L161.5,150.0 L162.7,147.7 L164.0,145.4 L165.3,143.1 L166.5,140.7 L167.8,138.3 L169.1,135.8 L170.3,133.2 L171.6,130.6 L172.9,128.0 L174.2,125.3 L175.4,122.6 L176.7,119.8 L178.0,117.0 L179.2,114.2 L180.5,111.3 L181.8,108.5 L183.1,105.6 L184.3,102.6 L185.6,99.7 L186.9,96.8 L188.1,93.8 L189.4,90.9 L190.7,88.0 L191.9,85.1 L193.2,82.2 L194.5,79.3 L195.8,76.4 L197.0,73.6 L198.3,70.8 L199.6,68.0 L200.8,65.3 L202.1,62.7 L203.4,60.1 L204.7,57.5 L205.9,55.1 L207.2,52.7 L208.5,50.3 L209.7,48.1 L211.0,45.9 L212.3,43.9 L213.5,41.9 L214.8,40.0 L216.1,38.2 L217.4,36.6 L218.6,35.0 L219.9,33.6 L221.2,32.2 L222.4,31.0 L223.7,30.0 L225.0,29.0 L226.3,28.2 L227.5,27.5 L228.8,26.9 L230.1,26.5 L231.3,26.2 L232.6,26.0 L233.9,26.0 L235.1,26.1 L236.4,26.3 L237.7,26.7 L239.0,27.2 L240.2,27.9 L241.5,28.6 L242.8,29.5 L244.0,30.6 L245.3,31.7 L246.6,33.0 L247.9,34.4 L249.1,35.9 L250.4,37.5 L251.7,39.2 L252.9,41.0 L254.2,43.0 L255.5,45.0 L256.7,47.1 L258.0,49.3 L259.3,51.6 L260.6,54.0 L261.8,56.4 L263.1,58.9 L264.4,61.5 L265.6,64.2 L266.9,66.8 L268.2,69.6 L269.5,72.3 L270.7,75.2 L272.0,78.0 L273.3,80.9 L274.5,83.8 L275.8,86.7 L277.1,89.6 L278.3,92.6 L279.6,95.5 L280.9,98.4 L282.2,101.4 L283.4,104.3 L284.7,107.2 L286.0,110.1 L287.2,112.9 L288.5,115.8 L289.8,118.6 L291.1,121.4 L292.3,124.1 L293.6,126.8 L294.9,129.5 L296.1,132.1 L297.4,134.6 L298.7,137.2 L299.9,139.6 L301.2,142.1 L302.5,144.4 L303.8,146.7 L305.0,149.0 L306.3,151.2 L307.6,153.3 L308.8,155.4 L310.1,157.4 L311.4,159.4 L312.6,161.3 L313.9,163.1 L315.2,164.9 L316.5,166.6 L317.7,168.2 L319.0,169.8 L320.3,171.4 L321.5,172.9 L322.8,174.3 L324.1,175.7 L325.4,177.0 L326.6,178.2 L327.9,179.4 L329.2,180.6 L330.4,181.7 L331.7,182.7 L333.0,183.7 L334.2,184.7 L335.5,185.6 L336.8,186.4 L338.1,187.2 L339.3,188.0 L340.6,188.7 L341.9,189.4 L343.1,190.1 L344.4,190.7 L345.7,191.3 L347.0,191.8 L348.2,192.3 L349.5,192.8 L350.8,193.2 L352.0,193.7 L353.3,194.0 L354.6,194.4 L355.8,194.7 L357.1,195.0 L358.4,195.3 L359.7,195.5 L360.9,195.8 L362.2,196.0 L363.5,196.1 L364.7,196.3 L366.0,196.4 L367.3,196.5 L368.6,196.6 L369.8,196.7 L371.1,196.7 L372.4,196.7 L373.6,196.7 L374.9,196.7 L376.2,196.7 L377.4,196.6 L378.7,196.5 L380.0,196.4 L381.3,196.3 L382.5,196.1 L383.8,196.0 L385.1,195.8 L386.3,195.5 L387.6,195.3 L388.9,195.0 L390.2,194.7 L391.4,194.4 L392.7,194.0 L394.0,193.7 L395.2,193.2 L396.5,192.8 L397.8,192.3 L399.0,191.8 L400.3,191.3 L401.6,190.7 L402.9,190.1 L404.1,189.4 L405.4,188.7 L406.7,188.0 L407.9,187.2 L409.2,186.4 L410.5,185.6 L411.8,184.7 L413.0,183.7 L414.3,182.7 L415.6,181.7 L416.8,180.6 L418.1,179.4 L419.4,178.2 L420.6,177.0 L421.9,175.7 L423.2,174.3 L424.5,172.9 L425.7,171.4 L427.0,169.8 L428.3,168.2 L429.5,166.6 L430.8,164.9 L432.1,163.1 L433.4,161.3 L434.6,159.4 L435.9,157.4 L437.2,155.4 L438.4,153.3 L439.7,151.2 L441.0,149.0 L442.2,146.7 L443.5,144.4 L444.8,142.1 L446.1,139.6 L447.3,137.2 L448.6,134.6 L449.9,132.1 L451.1,129.5 L452.4,126.8 L453.7,124.1 L454.9,121.4 L456.2,118.6 L457.5,115.8 L458.8,112.9 L460.0,110.1 L461.3,107.2 L462.6,104.3 L463.8,101.4 L465.1,98.4 L466.4,95.5 L467.7,92.6 L468.9,89.6 L470.2,86.7 L471.5,83.8 L472.7,80.9 L474.0,78.0 L475.3,75.2 L476.5,72.3 L477.8,69.6 L479.1,66.8 L480.4,64.2 L481.6,61.5 L482.9,58.9 L484.2,56.4 L485.4,54.0 L486.7,51.6 L488.0,49.3 L489.3,47.1 L490.5,45.0 L491.8,43.0 L493.1,41.0 L494.3,39.2 L495.6,37.5 L496.9,35.9 L498.1,34.4 L499.4,33.0 L500.7,31.7 L502.0,30.6 L503.2,29.5 L504.5,28.6 L505.8,27.9 L507.0,27.2 L508.3,26.7 L509.6,26.3 L510.9,26.1 L512.1,26.0 L513.4,26.0 L514.7,26.2 L515.9,26.5 L517.2,26.9 L518.5,27.5 L519.7,28.2 L521.0,29.0 L522.3,30.0 L523.6,31.0 L524.8,32.2 L526.1,33.6 L527.4,35.0 L528.6,36.6 L529.9,38.2 L531.2,40.0 L532.5,41.9 L533.7,43.9 L535.0,45.9 L536.3,48.1 L537.5,50.3 L538.8,52.7 L540.1,55.1 L541.3,57.5 L542.6,60.1 L543.9,62.7 L545.2,65.3 L546.4,68.0 L547.7,70.8 L549.0,73.6 L550.2,76.4 L551.5,79.3 L552.8,82.2 L554.1,85.1 L555.3,88.0 L556.6,90.9 L557.9,93.8 L559.1,96.8 L560.4,99.7 L561.7,102.6 L562.9,105.6 L564.2,108.5 L565.5,111.3 L566.8,114.2 L568.0,117.0 L569.3,119.8 L570.6,122.6 L571.8,125.3 L573.1,128.0 L574.4,130.6 L575.7,133.2 L576.9,135.8 L578.2,138.3 L579.5,140.7 L580.7,143.1 L582.0,145.4 L583.3,147.7 L584.5,150.0 L585.8,152.1 L587.1,154.2 L588.4,156.3 L589.6,158.3 L590.9,160.2 L592.2,162.1 L593.4,163.9 L594.7,165.7 L596.0,167.3 L597.3,169.0 L598.5,170.5 L599.8,172.1 L601.1,173.5 L602.3,174.9 L603.6,176.3 L604.9,177.6 L606.1,178.8 L607.4,180.0 L608.7,181.1 L610.0,182.2 L611.2,183.2 L612.5,184.2 L613.8,185.2 L615.0,186.1 L616.3,186.9 L617.6,187.7 L618.8,188.5 L620.1,189.2 L621.4,189.9 L622.7,190.5 L623.9,191.2 L625.2,191.8 L626.5,192.3 L627.7,192.8 L629.0,193.3 L630.3,193.8 L631.6,194.2 L632.8,194.6 L634.1,195.0 L635.4,195.4 L636.6,195.7 L637.9,196.0 L639.2,196.3 L640.4,196.6 L641.7,196.8 L643.0,197.1 L644.3,197.3 L645.5,197.5 L646.8,197.7 L648.1,197.9 L649.3,198.1 L650.6,198.2 L651.9,198.4 L653.2,198.5 L654.4,198.6 L655.7,198.7 L657.0,198.8 L658.2,198.9 L659.5,199.0 L660.8,199.1 L662.0,199.2 L663.3,199.3 L664.6,199.3 L665.9,199.4 L667.1,199.4 L668.4,199.5 L669.7,199.5 L670.9,199.6 L672.2,199.6 L673.5,199.7 L674.8,199.7 L676.0,199.7 L677.3,199.7 L678.6,199.8 L679.8,199.8 L681.1,199.8 L682.4,199.8 L683.6,199.8 L684.9,199.9 L686.2,199.9 L687.5,199.9 L688.7,199.9 L690.0,199.9 L690.0,200.0 L56.0,200.0 Z" fill="#2563eb" fill-opacity="0.16"/>
  <path d="M56.0,199.9 L57.3,199.9 L58.5,199.9 L59.8,199.9 L61.1,199.9 L62.4,199.8 L63.6,199.8 L64.9,199.8 L66.2,199.8 L67.4,199.8 L68.7,199.7 L70.0,199.7 L71.2,199.7 L72.5,199.7 L73.8,199.6 L75.1,199.6 L76.3,199.5 L77.6,199.5 L78.9,199.4 L80.1,199.4 L81.4,199.3 L82.7,199.3 L84.0,199.2 L85.2,199.1 L86.5,199.0 L87.8,198.9 L89.0,198.8 L90.3,198.7 L91.6,198.6 L92.8,198.5 L94.1,198.4 L95.4,198.2 L96.7,198.1 L97.9,197.9 L99.2,197.7 L100.5,197.5 L101.7,197.3 L103.0,197.1 L104.3,196.8 L105.6,196.6 L106.8,196.3 L108.1,196.0 L109.4,195.7 L110.6,195.4 L111.9,195.0 L113.2,194.6 L114.4,194.2 L115.7,193.8 L117.0,193.3 L118.3,192.8 L119.5,192.3 L120.8,191.8 L122.1,191.2 L123.3,190.5 L124.6,189.9 L125.9,189.2 L127.2,188.5 L128.4,187.7 L129.7,186.9 L131.0,186.1 L132.2,185.2 L133.5,184.2 L134.8,183.2 L136.0,182.2 L137.3,181.1 L138.6,180.0 L139.9,178.8 L141.1,177.6 L142.4,176.3 L143.7,174.9 L144.9,173.5 L146.2,172.1 L147.5,170.5 L148.7,169.0 L150.0,167.3 L151.3,165.7 L152.6,163.9 L153.8,162.1 L155.1,160.2 L156.4,158.3 L157.6,156.3 L158.9,154.2 L160.2,152.1 L161.5,150.0 L162.7,147.7 L164.0,145.4 L165.3,143.1 L166.5,140.7 L167.8,138.3 L169.1,135.8 L170.3,133.2 L171.6,130.6 L172.9,128.0 L174.2,125.3 L175.4,122.6 L176.7,119.8 L178.0,117.0 L179.2,114.2 L180.5,111.3 L181.8,108.5 L183.1,105.6 L184.3,102.6 L185.6,99.7 L186.9,96.8 L188.1,93.8 L189.4,90.9 L190.7,88.0 L191.9,85.1 L193.2,82.2 L194.5,79.3 L195.8,76.4 L197.0,73.6 L198.3,70.8 L199.6,68.0 L200.8,65.3 L202.1,62.7 L203.4,60.1 L204.7,57.5 L205.9,55.1 L207.2,52.7 L208.5,50.3 L209.7,48.1 L211.0,45.9 L212.3,43.9 L213.5,41.9 L214.8,40.0 L216.1,38.2 L217.4,36.6 L218.6,35.0 L219.9,33.6 L221.2,32.2 L222.4,31.0 L223.7,30.0 L225.0,29.0 L226.3,28.2 L227.5,27.5 L228.8,26.9 L230.1,26.5 L231.3,26.2 L232.6,26.0 L233.9,26.0 L235.1,26.1 L236.4,26.3 L237.7,26.7 L239.0,27.2 L240.2,27.9 L241.5,28.6 L242.8,29.5 L244.0,30.6 L245.3,31.7 L246.6,33.0 L247.9,34.4 L249.1,35.9 L250.4,37.5 L251.7,39.2 L252.9,41.0 L254.2,43.0 L255.5,45.0 L256.7,47.1 L258.0,49.3 L259.3,51.6 L260.6,54.0 L261.8,56.4 L263.1,58.9 L264.4,61.5 L265.6,64.2 L266.9,66.8 L268.2,69.6 L269.5,72.3 L270.7,75.2 L272.0,78.0 L273.3,80.9 L274.5,83.8 L275.8,86.7 L277.1,89.6 L278.3,92.6 L279.6,95.5 L280.9,98.4 L282.2,101.4 L283.4,104.3 L284.7,107.2 L286.0,110.1 L287.2,112.9 L288.5,115.8 L289.8,118.6 L291.1,121.4 L292.3,124.1 L293.6,126.8 L294.9,129.5 L296.1,132.1 L297.4,134.6 L298.7,137.2 L299.9,139.6 L301.2,142.1 L302.5,144.4 L303.8,146.7 L305.0,149.0 L306.3,151.2 L307.6,153.3 L308.8,155.4 L310.1,157.4 L311.4,159.4 L312.6,161.3 L313.9,163.1 L315.2,164.9 L316.5,166.6 L317.7,168.2 L319.0,169.8 L320.3,171.4 L321.5,172.9 L322.8,174.3 L324.1,175.7 L325.4,177.0 L326.6,178.2 L327.9,179.4 L329.2,180.6 L330.4,181.7 L331.7,182.7 L333.0,183.7 L334.2,184.7 L335.5,185.6 L336.8,186.4 L338.1,187.2 L339.3,188.0 L340.6,188.7 L341.9,189.4 L343.1,190.1 L344.4,190.7 L345.7,191.3 L347.0,191.8 L348.2,192.3 L349.5,192.8 L350.8,193.2 L352.0,193.7 L353.3,194.0 L354.6,194.4 L355.8,194.7 L357.1,195.0 L358.4,195.3 L359.7,195.5 L360.9,195.8 L362.2,196.0 L363.5,196.1 L364.7,196.3 L366.0,196.4 L367.3,196.5 L368.6,196.6 L369.8,196.7 L371.1,196.7 L372.4,196.7 L373.6,196.7 L374.9,196.7 L376.2,196.7 L377.4,196.6 L378.7,196.5 L380.0,196.4 L381.3,196.3 L382.5,196.1 L383.8,196.0 L385.1,195.8 L386.3,195.5 L387.6,195.3 L388.9,195.0 L390.2,194.7 L391.4,194.4 L392.7,194.0 L394.0,193.7 L395.2,193.2 L396.5,192.8 L397.8,192.3 L399.0,191.8 L400.3,191.3 L401.6,190.7 L402.9,190.1 L404.1,189.4 L405.4,188.7 L406.7,188.0 L407.9,187.2 L409.2,186.4 L410.5,185.6 L411.8,184.7 L413.0,183.7 L414.3,182.7 L415.6,181.7 L416.8,180.6 L418.1,179.4 L419.4,178.2 L420.6,177.0 L421.9,175.7 L423.2,174.3 L424.5,172.9 L425.7,171.4 L427.0,169.8 L428.3,168.2 L429.5,166.6 L430.8,164.9 L432.1,163.1 L433.4,161.3 L434.6,159.4 L435.9,157.4 L437.2,155.4 L438.4,153.3 L439.7,151.2 L441.0,149.0 L442.2,146.7 L443.5,144.4 L444.8,142.1 L446.1,139.6 L447.3,137.2 L448.6,134.6 L449.9,132.1 L451.1,129.5 L452.4,126.8 L453.7,124.1 L454.9,121.4 L456.2,118.6 L457.5,115.8 L458.8,112.9 L460.0,110.1 L461.3,107.2 L462.6,104.3 L463.8,101.4 L465.1,98.4 L466.4,95.5 L467.7,92.6 L468.9,89.6 L470.2,86.7 L471.5,83.8 L472.7,80.9 L474.0,78.0 L475.3,75.2 L476.5,72.3 L477.8,69.6 L479.1,66.8 L480.4,64.2 L481.6,61.5 L482.9,58.9 L484.2,56.4 L485.4,54.0 L486.7,51.6 L488.0,49.3 L489.3,47.1 L490.5,45.0 L491.8,43.0 L493.1,41.0 L494.3,39.2 L495.6,37.5 L496.9,35.9 L498.1,34.4 L499.4,33.0 L500.7,31.7 L502.0,30.6 L503.2,29.5 L504.5,28.6 L505.8,27.9 L507.0,27.2 L508.3,26.7 L509.6,26.3 L510.9,26.1 L512.1,26.0 L513.4,26.0 L514.7,26.2 L515.9,26.5 L517.2,26.9 L518.5,27.5 L519.7,28.2 L521.0,29.0 L522.3,30.0 L523.6,31.0 L524.8,32.2 L526.1,33.6 L527.4,35.0 L528.6,36.6 L529.9,38.2 L531.2,40.0 L532.5,41.9 L533.7,43.9 L535.0,45.9 L536.3,48.1 L537.5,50.3 L538.8,52.7 L540.1,55.1 L541.3,57.5 L542.6,60.1 L543.9,62.7 L545.2,65.3 L546.4,68.0 L547.7,70.8 L549.0,73.6 L550.2,76.4 L551.5,79.3 L552.8,82.2 L554.1,85.1 L555.3,88.0 L556.6,90.9 L557.9,93.8 L559.1,96.8 L560.4,99.7 L561.7,102.6 L562.9,105.6 L564.2,108.5 L565.5,111.3 L566.8,114.2 L568.0,117.0 L569.3,119.8 L570.6,122.6 L571.8,125.3 L573.1,128.0 L574.4,130.6 L575.7,133.2 L576.9,135.8 L578.2,138.3 L579.5,140.7 L580.7,143.1 L582.0,145.4 L583.3,147.7 L584.5,150.0 L585.8,152.1 L587.1,154.2 L588.4,156.3 L589.6,158.3 L590.9,160.2 L592.2,162.1 L593.4,163.9 L594.7,165.7 L596.0,167.3 L597.3,169.0 L598.5,170.5 L599.8,172.1 L601.1,173.5 L602.3,174.9 L603.6,176.3 L604.9,177.6 L606.1,178.8 L607.4,180.0 L608.7,181.1 L610.0,182.2 L611.2,183.2 L612.5,184.2 L613.8,185.2 L615.0,186.1 L616.3,186.9 L617.6,187.7 L618.8,188.5 L620.1,189.2 L621.4,189.9 L622.7,190.5 L623.9,191.2 L625.2,191.8 L626.5,192.3 L627.7,192.8 L629.0,193.3 L630.3,193.8 L631.6,194.2 L632.8,194.6 L634.1,195.0 L635.4,195.4 L636.6,195.7 L637.9,196.0 L639.2,196.3 L640.4,196.6 L641.7,196.8 L643.0,197.1 L644.3,197.3 L645.5,197.5 L646.8,197.7 L648.1,197.9 L649.3,198.1 L650.6,198.2 L651.9,198.4 L653.2,198.5 L654.4,198.6 L655.7,198.7 L657.0,198.8 L658.2,198.9 L659.5,199.0 L660.8,199.1 L662.0,199.2 L663.3,199.3 L664.6,199.3 L665.9,199.4 L667.1,199.4 L668.4,199.5 L669.7,199.5 L670.9,199.6 L672.2,199.6 L673.5,199.7 L674.8,199.7 L676.0,199.7 L677.3,199.7 L678.6,199.8 L679.8,199.8 L681.1,199.8 L682.4,199.8 L683.6,199.8 L684.9,199.9 L686.2,199.9 L687.5,199.9 L688.7,199.9 L690.0,199.9" fill="none" stroke="#2563eb" stroke-width="2.6" stroke-linejoin="round"/>
  <line x1="373.0" y1="32" x2="373.0" y2="200" stroke="#cbd5e1" stroke-width="1.2" stroke-dasharray="4 4"/>
  <text x="233.5" y="222" font-size="12.5" fill="#475569" text-anchor="middle">模式 A</text>
  <text x="512.5" y="222" font-size="12.5" fill="#475569" text-anchor="middle">模式 B</text>
  <text x="373.0" y="244.0" font-size="12.5" fill="#64748b" text-anchor="middle">谷底 p≈0</text>
</svg>
